<svg class="icon" viewBox="0 0 1024 1024" xmlns="http://www.w3.org/2000/svg">
    <path fill="#3D3D3D"
          d="M361.2 691.7c-6.4 0-12.8-2.4-17.7-7.3-9.8-9.8-9.8-25.6 0-35.3l304.4-304.4c9.8-9.8 25.6-9.8 35.3 0 9.8 9.7 9.8 25.6 0 35.3L378.9 684.4c-4.9 4.9-11.3 7.3-17.7 7.3z"></path>
    <path fill="#3D3D3D"
          d="M665.6 691.7c-6.4 0-12.8-2.4-17.7-7.3L343.6 380c-9.8-9.7-9.8-25.6 0-35.3 9.8-9.8 25.6-9.8 35.3 0l304.4 304.4c9.8 9.8 9.8 25.6 0 35.3-4.9 4.9-11.3 7.3-17.7 7.3z"></path>
</svg>